<svg width="16" height="12" viewBox="0 0 16 12" fill="none" xmlns="http://www.w3.org/2000/svg">
<path d="M6.05 4.57937C6.05 4.18111 6.31863 3.85825 6.65 3.85825H9.35C9.68137 3.85825 9.95 4.18111 9.95 4.57937V6.0216V7.46383C9.95 7.86209 9.68137 8.18494 9.35 8.18494H6.65C6.31863 8.18494 6.05 7.86209 6.05 7.46383V6.0216V4.57937Z" fill="#F6F5F3"/>
<path d="M9.84663 3.96863C10.7586 2.53196 12.7899 1.54223 13.8625 1.15526C14.1641 1.04644 14.4729 1.25272 14.5491 1.61997C14.7268 2.47653 15 4.10521 15 6.0216C15 7.96298 14.7196 9.6091 14.5422 10.4563C14.4683 10.8092 14.1788 11.0155 13.8862 10.9219C12.8915 10.6037 11.0448 9.73685 9.83878 7.99769M6.17526 3.91141C5.10378 1.60216 3.02333 1.1082 2.03259 1.00254C1.774 0.974963 1.54664 1.17442 1.48135 1.4764C1.30647 2.28517 1 3.99204 1 6.0216C1 8.01131 1.29455 9.69087 1.47089 10.5181C1.54027 10.8436 1.79642 11.0466 2.07208 10.9908C3.08382 10.7861 5.1052 10.105 6.16686 8.09671M9.95 6.0216V4.57937C9.95 4.18111 9.68137 3.85825 9.35 3.85825H6.65C6.31863 3.85825 6.05 4.18111 6.05 4.57937V6.0216M9.95 6.0216V7.46383C9.95 7.86209 9.68137 8.18494 9.35 8.18494H6.65C6.31863 8.18494 6.05 7.86209 6.05 7.46383V6.0216M9.95 6.0216H12.75M6.05 6.0216H3.25" stroke="#BC0606"/>
</svg>
