<svg width="23" height="21" viewBox="0 0 23 21" fill="none" xmlns="http://www.w3.org/2000/svg">
<path d="M17.4318 12.7521V12.7521C14.7694 12.8249 12.3591 11.1858 11.4482 8.68297L11.3335 8.36792L18.7552 5.66665L19.0515 6.48081C19.8611 8.70502 19.2172 11.1981 17.4318 12.7521V12.7521ZM17.4318 12.7521L19.5543 18.5834M19.5543 18.5834L17.1687 19.4517M19.5543 18.5834L21.9398 17.7152" stroke="#BC0606"/>
<path d="M6.01988 12.8668V12.8668C3.96039 11.2324 3.1778 8.46352 4.07704 5.99289L4.19023 5.68188L11.5165 8.34843L11.224 9.15213C10.4248 11.3477 8.35603 12.8244 6.01988 12.8668V12.8668ZM6.01988 12.8668L3.92474 18.6231M3.92474 18.6231L1.56986 17.766M3.92474 18.6231L6.27961 19.4802" stroke="#BC0606"/>
<line x1="7.437" y1="2.47994" x2="8.93962" y2="3.98257" stroke="#BC0606"/>
<line x1="15.2288" y1="2.47855" x2="13.7262" y2="3.98118" stroke="#BC0606"/>
<line x1="11.4793" y1="-2.18557e-08" x2="11.4793" y2="2.83338" stroke="#BC0606"/>
</svg>
