<svg width="15" height="20" viewBox="0 0 15 20" fill="none" xmlns="http://www.w3.org/2000/svg">
<path d="M7.5 19L7.12978 19.3361L7.5 19.7439L7.87022 19.3361L7.5 19ZM13.5 7.98276C13.5 8.82709 13.1375 9.9119 12.5375 11.1068C11.9443 12.2884 11.1479 13.5217 10.3433 14.6467C9.53998 15.77 8.73556 16.7756 8.13144 17.5009C7.8296 17.8632 7.5783 18.155 7.40284 18.3557C7.31512 18.4561 7.24639 18.5336 7.19982 18.5859C7.17653 18.612 7.15879 18.6318 7.14698 18.6449C7.14108 18.6514 7.13666 18.6563 7.13378 18.6595C7.13233 18.6611 7.13128 18.6623 7.13061 18.663C7.13027 18.6634 7.13004 18.6637 7.1299 18.6638C7.12983 18.6639 7.1298 18.6639 7.12976 18.664C7.12976 18.664 7.12978 18.6639 7.5 19C7.87022 19.3361 7.87029 19.336 7.87038 19.3359C7.87045 19.3358 7.87057 19.3357 7.87069 19.3355C7.87095 19.3353 7.87131 19.3349 7.87176 19.3344C7.87267 19.3334 7.87396 19.3319 7.87565 19.3301C7.87901 19.3263 7.88391 19.3209 7.89031 19.3138C7.9031 19.2996 7.92186 19.2787 7.94618 19.2514C7.99482 19.1969 8.06574 19.1168 8.15575 19.0138C8.33576 18.8079 8.59227 18.5101 8.89981 18.1409C9.51444 17.403 10.335 16.3774 11.1567 15.2284C11.9771 14.0812 12.8057 12.8012 13.4312 11.5555C14.05 10.3231 14.5 9.06666 14.5 7.98276H13.5ZM7.5 1.5C10.7806 1.5 13.5 4.36809 13.5 7.98276H14.5C14.5 3.88449 11.3991 0.5 7.5 0.5V1.5ZM1.5 7.98276C1.5 4.36809 4.21942 1.5 7.5 1.5V0.5C3.60087 0.5 0.5 3.88449 0.5 7.98276H1.5ZM7.5 19C7.87022 18.6639 7.87024 18.664 7.87024 18.664C7.8702 18.6639 7.87017 18.6639 7.8701 18.6638C7.86996 18.6637 7.86973 18.6634 7.86939 18.663C7.86872 18.6623 7.86766 18.6611 7.86622 18.6595C7.86334 18.6563 7.85892 18.6514 7.85302 18.6449C7.84121 18.6318 7.82347 18.612 7.80018 18.5859C7.75361 18.5336 7.68488 18.4561 7.59716 18.3557C7.4217 18.155 7.17039 17.8632 6.86856 17.5009C6.26444 16.7756 5.46002 15.77 4.6567 14.6467C3.85213 13.5217 3.05575 12.2884 2.46246 11.1068C1.8625 9.9119 1.5 8.82709 1.5 7.98276H0.5C0.5 9.06666 0.95 10.3231 1.56879 11.5555C2.19425 12.8012 3.02287 14.0812 3.8433 15.2284C4.66498 16.3774 5.48556 17.403 6.10019 18.1409C6.40773 18.5101 6.66424 18.8079 6.84425 19.0138C6.93426 19.1168 7.00518 19.1969 7.05382 19.2514C7.07814 19.2787 7.0969 19.2996 7.10969 19.3138C7.11608 19.3209 7.12099 19.3263 7.12435 19.3301C7.12604 19.3319 7.12733 19.3334 7.12824 19.3344C7.12869 19.3349 7.12905 19.3353 7.1293 19.3355C7.12943 19.3357 7.12955 19.3358 7.12962 19.3359C7.12971 19.336 7.12978 19.3361 7.5 19ZM9.95448 7.59985C9.95448 8.98779 8.84838 10.0999 7.49994 10.0999V11.0999C9.415 11.0999 10.9545 9.52563 10.9545 7.59985H9.95448ZM7.49994 5.09985C8.84838 5.09985 9.95448 6.21192 9.95448 7.59985H10.9545C10.9545 5.67408 9.415 4.09985 7.49994 4.09985V5.09985ZM5.04539 7.59985C5.04539 6.21192 6.1515 5.09985 7.49994 5.09985V4.09985C5.58488 4.09985 4.04539 5.67408 4.04539 7.59985H5.04539ZM7.49994 10.0999C6.1515 10.0999 5.04539 8.98779 5.04539 7.59985H4.04539C4.04539 9.52563 5.58488 11.0999 7.49994 11.0999V10.0999Z" fill="#BC0606"/>
</svg>
