<svg width="34" height="20" viewBox="0 0 34 20" fill="none" xmlns="http://www.w3.org/2000/svg">
<path d="M4.22897 19.0521C4.22897 19.0521 4.22897 19.0521 4.22897 19.0521C4.22897 19.0521 2.5872 20 1.33824 17.8367C0.0892791 15.6735 1.73104 14.7256 1.73104 14.7256L8.84498 10.6184C9.06821 10.4895 9.33258 10.4518 9.58294 10.5131L11.6277 11.0141C11.8781 11.0754 12.1424 11.0377 12.3657 10.9088L26.4396 2.78322C26.8378 2.55329 26.9743 2.04406 26.7444 1.64581C26.6294 1.44669 26.6976 1.19207 26.8967 1.07711L27.077 0.973028C27.3757 0.800583 27.7576 0.902837 27.93 1.20152C28.1107 1.51454 28.3435 1.91774 28.5546 2.28324C28.7852 2.68269 29.0104 3.1453 29.168 3.48443C29.2953 3.75841 29.1881 4.08075 28.9264 4.23181L28.8164 4.29534C28.5917 4.42503 28.3045 4.34807 28.1748 4.12344C27.9154 3.67419 27.341 3.52027 26.8917 3.77964L12.8952 11.8605C12.6809 11.9842 12.5201 12.183 12.4439 12.4185L11.8092 14.3783C11.7329 14.6138 11.5721 14.8126 11.3578 14.9363L4.22897 19.0521Z" fill="#20503D"/>
<path d="M32.3582 14.7257C32.3582 14.7257 32.3582 14.7257 32.3582 14.7257C32.3582 14.7257 34 15.6736 32.751 17.8368C31.5021 20.0001 29.8603 19.0522 29.8603 19.0522L22.7464 14.945C22.5231 14.8161 22.3583 14.606 22.2862 14.3585L21.6977 12.3372C21.6256 12.0898 21.4608 11.8797 21.2376 11.7508L7.16364 3.6252C6.7654 3.39527 6.25616 3.53172 6.02623 3.92997C5.91127 4.12909 5.65665 4.19731 5.45753 4.08235L5.27726 3.97827C4.97857 3.80582 4.87619 3.42398 5.04863 3.1253C5.22936 2.81228 5.46214 2.40908 5.67316 2.04358C5.90379 1.64413 6.1918 1.21777 6.40671 0.911738C6.58033 0.6645 6.91311 0.596199 7.17474 0.747254L7.28479 0.810791C7.50942 0.94048 7.58638 1.22771 7.45669 1.45233C7.19732 1.90159 7.35124 2.47605 7.8005 2.73542L21.797 10.8163C22.0113 10.94 22.2638 10.9799 22.5058 10.9282L24.5205 10.4979C24.7625 10.4463 25.0151 10.4861 25.2294 10.6099L32.3582 14.7257Z" fill="#20503D"/>
</svg>
