<svg width="13" height="17" viewBox="0 0 13 17" fill="none" xmlns="http://www.w3.org/2000/svg">
<path d="M3.67829 4.09821C3.67829 4.09821 4.80171 2.86435 5.34109 2.02381C5.83701 1.25099 6.5 0 6.5 0C6.5 0 7.07301 1.18406 7.55814 1.92262C8.13684 2.80362 9.22093 4.04762 9.22093 4.04762C9.22093 4.04762 8.71043 4.02465 8.36434 3.94643C8.0114 3.86666 7.45736 3.69345 7.45736 3.69345C7.45736 3.69345 8.13688 4.48407 8.66667 4.95833C9.33944 5.56059 10.531 6.3244 10.531 6.3244C10.531 6.3244 9.85452 6.35183 9.42248 6.3244C8.96697 6.29549 8.16279 6.07143 8.16279 6.07143C8.16279 6.07143 9.01983 7.02057 9.57364 7.4881C10.2462 8.05588 11.5388 8.75298 11.5388 8.75298C11.5388 8.75298 10.531 8.80357 9.67442 8.75298C9.13395 8.72105 8.01163 8.24702 8.01163 8.24702C8.01163 8.24702 9.06552 9.18927 9.87597 9.76488C10.6474 10.3128 12.1434 11.131 12.1434 11.131C12.1434 11.131 10.8879 11.1154 10.1279 10.878C9.53077 10.6914 8.61628 10.119 8.61628 10.119C8.61628 10.119 9.39859 11.2106 9.97674 11.7381C10.9884 12.6611 13 13.4583 13 13.4583C13 13.4583 11.0767 13.152 9.87597 12.8006C8.99776 12.5436 7.7093 12.0417 7.7093 12.0417V16.6964C7.7093 16.6964 7.20543 17 6.44961 17C5.6938 17 5.08915 16.747 5.08915 16.747L5.13953 12.0923C5.13953 12.0923 4.03101 12.4651 2.87209 12.8006C1.76232 13.1218 0 13.5089 0 13.5089C0 13.5089 1.61486 12.6134 2.62016 11.9405C3.67829 11.2321 4.33333 10.119 4.33333 10.119C4.33333 10.119 3.60329 10.619 2.87209 10.8274C2.14065 11.0358 0.806202 11.1815 0.806202 11.1815C0.806202 11.1815 1.90324 10.5255 2.72093 9.96726C3.60297 9.3651 4.93798 8.24702 4.93798 8.24702C4.93798 8.24702 3.88548 8.60216 3.22481 8.70238C2.50385 8.81175 1.31008 8.80357 1.31008 8.80357C1.31008 8.80357 2.55513 8.1267 3.22481 7.58929C3.85523 7.08337 4.78682 6.07143 4.78682 6.07143C4.78682 6.07143 4.20789 6.22097 3.82946 6.27381C3.26391 6.35278 2.36822 6.375 2.36822 6.375C2.36822 6.375 3.29098 5.76854 3.87985 5.2619C4.52446 4.7073 5.49225 3.69345 5.49225 3.69345C5.49225 3.69345 4.94541 3.87459 4.63566 3.94643C4.29002 4.02659 3.67829 4.09821 3.67829 4.09821Z" fill="#005232"/>
</svg>
